<?xml version="1.0" encoding="UTF-8"?>
<svg width="348px" height="807px" viewBox="0 0 348 807" version="1.1" xmlns="http://www.w3.org/2000/svg" xmlns:xlink="http://www.w3.org/1999/xlink">
    <!-- Generator: Sketch 47.1 (45422) - http://www.bohemiancoding.com/sketch -->
    <title>sourcewars_bg</title>
    <desc>Created with Sketch.</desc>
    <defs></defs>
    <g id="Page-1" stroke="none" stroke-width="1" fill="none" fill-rule="evenodd" opacity="0.5">
        <g id="sourcewars_bg" fill="#020000">
            <path d="M-215.525641,379.336538 L-264.632179,379.336538 C-266.691164,379.336538 -267.720641,380.520437 -267.720641,382.888269 C-267.720641,383.505965 -267.566219,383.917755 -267.257372,384.123654 L-244.866026,400.955769 C-235.600595,407.956317 -230.967949,417.324557 -230.967949,429.060769 C-230.967949,438.840946 -234.957172,447.153972 -242.935737,454.000096 C-250.914303,460.84622 -259.845015,464.269231 -269.728141,464.269231 L-339.064103,464.269231 L-339.064103,425.663462 L-293.200449,425.663462 C-291.141464,425.663462 -290.111987,424.428089 -290.111987,421.957308 C-290.111987,421.442562 -290.266409,421.082245 -290.575256,420.876346 L-311.422372,405.588462 C-319.555361,399.617406 -323.621795,390.506536 -323.621795,378.255577 C-323.621795,368.166552 -319.709783,359.390262 -311.885641,351.926442 C-304.061499,344.462623 -295.10505,340.730769 -285.016026,340.730769 L-215.525641,340.730769 L-215.525641,379.336538 Z M-76.5448718,402.5 C-76.5448718,419.795471 -83.2364715,434.516991 -96.6198718,446.665 C-109.488526,458.401213 -124.67331,464.269231 -142.174679,464.269231 C-159.676049,464.269231 -174.860833,458.401213 -187.729487,446.665 C-201.112887,434.516991 -207.804487,419.795471 -207.804487,402.5 C-207.804487,385.204529 -201.112887,370.483009 -187.729487,358.335 C-174.860833,346.598787 -159.676049,340.730769 -142.174679,340.730769 C-124.67331,340.730769 -109.488526,346.598787 -96.6198718,358.335 C-83.2364715,370.483009 -76.5448718,385.204529 -76.5448718,402.5 Z M-118.239103,402.5 C-118.239103,396.220097 -120.658373,390.789606 -125.496987,386.208365 C-130.335601,381.627125 -135.894776,379.336538 -142.174679,379.336538 C-148.557532,379.336538 -154.142444,381.627125 -158.929583,386.208365 C-163.716723,390.789606 -166.110256,396.220097 -166.110256,402.5 C-166.110256,408.779903 -163.716723,414.210394 -158.929583,418.791635 C-154.142444,423.372875 -148.557532,425.663462 -142.174679,425.663462 C-135.791827,425.663462 -130.206915,423.372875 -125.419776,418.791635 C-120.632636,414.210394 -118.239103,408.779903 -118.239103,402.5 Z M62.4358974,402.5 C62.4358974,419.795471 55.7442977,434.516991 42.3608974,446.665 C29.4922433,458.401213 14.3074593,464.269231 -3.19391026,464.269231 C-20.6952798,464.269231 -35.8800639,458.401213 -48.7487179,446.665 C-62.1321182,434.516991 -68.8237179,419.795471 -68.8237179,402.5 L-68.8237179,340.730769 L-27.1294872,340.730769 L-27.1294872,402.5 C-27.1294872,408.779903 -24.7359534,414.210394 -19.9488141,418.791635 C-15.1616748,423.372875 -9.57676268,425.663462 -3.19391026,425.663462 C3.08599294,425.663462 8.64516811,423.372875 13.4837821,418.791635 C18.322396,414.210394 20.7416667,408.779903 20.7416667,402.5 L20.7416667,340.730769 L62.4358974,340.730769 L62.4358974,402.5 Z M209.137821,464.269231 L168.987821,464.269231 C158.692897,464.269231 148.398128,459.121846 138.103205,448.826923 L116.483974,427.207692 L116.483974,464.269231 L70.1570513,464.269231 L70.1570513,340.730769 L158.178205,340.730769 C169.60557,340.730769 179.668707,344.848677 188.367917,353.084615 C197.067127,361.320554 201.416667,371.100584 201.416667,382.425 C201.416667,390.763888 198.945922,398.484964 194.004359,405.588462 C189.062796,412.691959 182.680039,417.736395 174.855897,420.721923 C176.708984,424.016299 179.385624,425.663462 182.885897,425.663462 L209.137821,425.663462 L209.137821,464.269231 Z M155.089744,383.969231 C155.089744,381.498449 154.163214,379.336548 152.310128,377.483462 C150.457042,375.630375 148.295141,374.703846 145.824359,374.703846 L116.483974,374.703846 L116.483974,393.234615 L145.824359,393.234615 C148.295141,393.234615 150.457042,392.308086 152.310128,390.455 C154.163214,388.601914 155.089744,386.440012 155.089744,383.969231 Z M332.676282,464.269231 L282.488782,464.269231 C264.987412,464.269231 249.802628,458.401213 236.933974,446.665 C223.550574,434.516991 216.858974,419.795471 216.858974,402.5 C216.858974,385.204529 223.550574,370.483009 236.933974,358.335 C249.802628,346.598787 264.987412,340.730769 282.488782,340.730769 L332.676282,340.730769 L332.676282,379.336538 L282.488782,379.336538 C276.208879,379.336538 270.649704,381.627125 265.81109,386.208365 C260.972476,390.789606 258.553205,396.220097 258.553205,402.5 C258.553205,408.779903 260.946739,414.210394 265.733878,418.791635 C270.521018,423.372875 276.10593,425.663462 282.488782,425.663462 L332.676282,425.663462 L332.676282,464.269231 Z M463.935897,464.269231 L340.397436,464.269231 L340.397436,340.730769 L463.935897,340.730769 L463.935897,379.336538 L386.724359,379.336538 L386.724359,386.285577 L433.051282,386.285577 L433.051282,418.714423 L386.724359,418.714423 L386.724359,425.663462 L463.935897,425.663462 L463.935897,464.269231 Z" id="Source" transform="translate(62.435897, 402.500000) rotate(-90.000000) translate(-62.435897, -402.500000) "></path>
            <path d="M113.599248,322.597744 L71.1255639,484.402256 L2.35864662,484.402256 L-11.7992481,430.4 L-25.9571429,484.402256 L-94.7240602,484.402256 L-137.197744,322.597744 L-74.4984962,322.597744 L-60.3406015,376.6 L-46.1827068,322.597744 L22.5842105,322.597744 L36.7421053,376.6 L50.9,322.597744 L113.599248,322.597744 Z M305.742105,484.402256 L243.042857,484.402256 L237.784211,464.176692 L191.669925,464.176692 L186.411278,484.402256 L123.71203,484.402256 L166.185714,322.597744 L263.268421,322.597744 L305.742105,484.402256 Z M227.064662,423.725564 L214.727068,376.6 L202.389474,423.725564 L227.064662,423.725564 Z M497.884962,484.402256 L445.298496,484.402256 C431.81472,484.402256 418.331145,477.660468 404.847368,464.176692 L376.531579,435.860902 L376.531579,484.402256 L315.854887,484.402256 L315.854887,322.597744 L431.140602,322.597744 C446.107594,322.597744 459.287788,327.991174 470.681579,338.778195 C482.07537,349.565217 487.77218,362.374613 487.77218,377.206767 C487.77218,388.128626 484.536123,398.241307 478.06391,407.545113 C471.591697,416.848919 463.231881,423.45587 452.984211,427.366165 C455.41129,431.680974 458.91702,433.838346 463.501504,433.838346 L497.884962,433.838346 L497.884962,484.402256 Z M427.095489,379.229323 C427.095489,375.993217 425.881967,373.161666 423.454887,370.734586 C421.027807,368.307507 418.196257,367.093985 414.96015,367.093985 L376.531579,367.093985 L376.531579,391.364662 L414.96015,391.364662 C418.196257,391.364662 421.027807,390.15114 423.454887,387.72406 C425.881967,385.29698 427.095489,382.46543 427.095489,379.229323 Z M669.802256,373.161654 L605.484962,373.161654 C602.788207,373.161654 601.43985,374.712265 601.43985,377.813534 C601.43985,378.62256 601.642103,379.161903 602.046617,379.431579 L631.373684,401.477444 C643.509083,410.646412 649.576692,422.916464 649.576692,438.28797 C649.576692,451.097558 644.351807,461.985544 633.90188,470.952256 C623.451953,479.918967 611.754952,484.402256 598.810526,484.402256 L507.997744,484.402256 L507.997744,433.838346 L568.067669,433.838346 C570.764425,433.838346 572.112782,432.220317 572.112782,428.984211 C572.112782,428.310022 571.910528,427.838097 571.506015,427.568421 L544.201504,407.545113 C533.54932,399.724522 528.223308,387.791559 528.223308,371.745865 C528.223308,358.531764 533.347067,347.037016 543.594737,337.261278 C553.842407,327.48554 565.573117,322.597744 578.787218,322.597744 L669.802256,322.597744 L669.802256,373.161654 Z" id="Wars" transform="translate(266.302256, 403.500000) rotate(-90.000000) translate(-266.302256, -403.500000) "></path>
        </g>
    </g>
</svg>